PathFileType	4	(X/Y/Z)	./resultDataOpenSim/trcMotMarkerGrf/sub09/qtm-05-04.trc
DataRate	CameraRate	NumFrames	NumMarkers	Units	OrigDataRate	OrigDataStartFrame	OrigNumFrames
250.000000	250.000000	14	24	m	250.000000	239	636
Frame#	Time	L.Toe.Tip			R.Toe.Tip			L.Ankle.Lat			R.Ankle.Lat			L.Ankle.Med			R.Ankle.Med			L.Heel			R.Heel			L.Knee.Lat			R.Knee.Lat			L.Knee.Med			R.Knee.Med			L.Thigh.Upper			R.Thigh.Upper			L.ASIS			R.ASIS			V.Sacral			L.Acromium			R.Acromium			C7			L.Elbow			R.Elbow			L.Wrist.Lat			R.Wrist.Lat
		X1	Y1	Z1	X2	Y2	Z2	X3	Y3	Z3	X4	Y4	Z4	X5	Y5	Z5	X6	Y6	Z6	X7	Y7	Z7	X8	Y8	Z8	X9	Y9	Z9	X10	Y10	Z10	X11	Y11	Z11	X12	Y12	Z12	X13	Y13	Z13	X14	Y14	Z14	X15	Y15	Z15	X16	Y16	Z16	X17	Y17	Z17	X18	Y18	Z18	X19	Y19	Z19	X20	Y20	Z20	X21	Y21	Z21	X22	Y22	Z22	X23	Y23	Z23	X24	Y24	Z24

239	0.952	0.084899113	-0.058854261	0.037412108	0.0038393304	0.12725947	0.15004585	-0.051644729	-0.012079183	-0.02782808	-0.10226921	0.2289246	0.16007031	-0.042035691	0.0069947387	0.069217405	-0.061618317	0.23619327	0.066220907	-0.13034924	-0.037475751	0.006841209	-0.1668062	0.24392567	0.10062808	0.070343425	0.38622855	-0.077324678	0.24203724	0.47994284	0.20554839	0.054293763	0.38795056	0.048915833	0.24820612	0.47214862	0.077039501	0.036693642	0.81031957	-0.13332966	0.0092273757	0.81312865	0.23828516	0.11402142	0.89431498	-0.061074777	0.088662767	0.90031713	0.17736049	-0.060193554	0.95340666	0.043495323	0.13232595	1.339923	-0.11283448	0.060246634	1.3620808	0.20944125	0.030616529	1.4041772	0.031880733	-0.0020878662	0.99491942	-0.19292355	-0.10036419	1.0323993	0.26736497	0.18314114	0.7979771	-0.18510089	-0.010078118	0.78145529	0.31283564
240	0.956	0.085027166	-0.058818923	0.037273524	0.022719785	0.12646005	0.14969047	-0.05118794	-0.011392207	-0.028049981	-0.086298911	0.22506977	0.16014253	-0.041485686	0.0077299406	0.069053515	-0.046307196	0.23362654	0.06632103	-0.13002734	-0.03654058	0.0068108105	-0.15158178	0.23846694	0.10138003	0.070814837	0.38712356	-0.077614024	0.25178818	0.48469217	0.20516352	0.055003977	0.38879678	0.048823405	0.25808727	0.47719871	0.077015085	0.040706979	0.81146804	-0.13321669	0.01505483	0.81504487	0.23866378	0.118505	0.89538815	-0.061428905	0.094132567	0.90187938	0.17704547	-0.055410168	0.95466931	0.044152703	0.13786658	1.3410966	-0.11268132	0.065980216	1.3633302	0.20955591	0.036276886	1.4053896	0.032022781	0.004107795	0.99552357	-0.19279677	-0.095549005	1.0344721	0.26726733	0.19218295	0.80095845	-0.18406809	-0.0067947124	0.78331489	0.31408305
241	0.96	0.085153303	-0.05878412	0.037137239	0.041735905	0.12562313	0.14925715	-0.050749758	-0.010722784	-0.028262426	-0.070147276	0.22108887	0.16018987	-0.040859364	0.0084817165	0.068889291	-0.031036594	0.23100384	0.066398214	-0.12975628	-0.035603763	0.006819917	-0.13610658	0.23284538	0.10195011	0.071248135	0.38802059	-0.077834664	0.26151671	0.48937422	0.2049028	0.055711461	0.38963979	0.048760355	0.26776798	0.48213993	0.077004367	0.04498764	0.81261831	-0.13285402	0.020894397	0.81687828	0.239039	0.12299265	0.89638292	-0.061774493	0.099615828	0.90334697	0.17671313	-0.050598759	0.9561546	0.04466771	0.14337399	1.3422164	-0.11253332	0.071762598	1.364517	0.2096714	0.041938499	1.4065468	0.032188321	0.010318057	0.99605066	-0.19261259	-0.090595797	1.036489	0.26717053	0.20103218	0.80395855	-0.18310862	-0.0033223619	0.78517349	0.3153616
242	0.964	0.085274276	-0.058749782	0.037006763	0.060823385	0.12476784	0.14874929	-0.05039127	-0.010040135	-0.028438921	-0.053830263	0.21698629	0.16020402	-0.040229269	0.0092193277	0.068727766	-0.015636696	0.22827943	0.066416599	-0.12951623	-0.034654643	0.0068354353	-0.12033109	0.22698981	0.10233858	0.071607181	0.38890527	-0.077987876	0.27122825	0.49403503	0.20477763	0.056409316	0.39051777	0.048697267	0.27724646	0.48696197	0.077009039	0.049398279	0.81372328	-0.13233082	0.026708166	0.81862738	0.23939692	0.12751709	0.89730788	-0.062113868	0.1051051	0.90472616	0.17637054	-0.045749134	0.95770217	0.045115907	0.14886076	1.3432844	-0.1123891	0.077598694	1.365649	0.20978773	0.047604511	1.407653	0.032384738	0.016539385	0.99650042	-0.19237184	-0.085704929	1.0384694	0.26716002	0.20946927	0.80688246	-0.18229875	0.00030575516	0.78702	0.31665724
243	0.968	0.0853893	-0.058716504	0.036885873	0.079954473	0.12392028	0.14817956	-0.050108072	-0.0093481598	-0.028575493	-0.037359057	0.21276159	0.16017281	-0.039678907	0.009916253	0.068571031	0.00017790465	0.22537247	0.066442394	-0.12929534	-0.033689448	0.006860572	-0.10421292	0.22085089	0.10241863	0.071897548	0.3897461	-0.07812744	0.28086248	0.49866403	0.2047407	0.057079022	0.39143514	0.048611519	0.28653792	0.49165867	0.077026681	0.053689859	0.8147098	-0.13187911	0.032491276	0.82029557	0.23973687	0.13210746	0.8981699	-0.062447356	0.11059641	0.906024	0.17602591	-0.040876976	0.95916043	0.04555049	0.15434149	1.3443009	-0.11225821	0.083478944	1.3667299	0.2099047	0.053267051	1.4087021	0.032602016	0.022769439	0.99687708	-0.19208085	-0.080985444	1.0404255	0.26723967	0.21753411	0.80966886	-0.1816919	0.0040276023	0.78883292	0.31795082
244	0.972	0.085502062	-0.058684528	0.036775416	0.099111323	0.12307962	0.14756964	-0.049866885	-0.0086692893	-0.028674883	-0.020749038	0.20841379	0.16009071	-0.039243839	0.010557111	0.068433425	0.016484955	0.2222374	0.066490948	-0.12909201	-0.032718825	0.0069108927	-0.087801006	0.21446838	0.10213535	0.072151344	0.39052144	-0.078305315	0.29032041	0.50316896	0.20475633	0.057726077	0.39232911	0.048526248	0.29566647	0.49621951	0.0770469	0.057705582	0.81553046	-0.13169167	0.038262482	0.82189261	0.2400674	0.13675844	0.89896528	-0.06276911	0.11609051	0.90724575	0.17568702	-0.035995203	0.96050266	0.045965714	0.15982083	1.3452649	-0.11215422	0.089394181	1.3677556	0.21002083	0.058914745	1.4096832	0.032816572	0.029011237	0.99718845	-0.19175178	-0.076450418	1.0423658	0.26734819	0.22560243	0.81238835	-0.18117352	0.0078014191	0.7905935	0.31923127
245	0.976	0.085615747	-0.058652128	0.036671659	0.11828517	0.12222617	0.1469306	-0.049640455	-0.0080205077	-0.028742644	-0.0040068056	0.20393844	0.15996907	-0.038933602	0.011129896	0.068343151	0.033164502	0.21887601	0.066494755	-0.12891429	-0.031783254	0.007017351	-0.071224392	0.20797992	0.10170662	0.072386792	0.39123568	-0.078496498	0.29951502	0.5074375	0.20482936	0.058392496	0.39311356	0.048480421	0.30465389	0.50062697	0.077064663	0.061502921	0.81620383	-0.13173904	0.044034377	0.82342941	0.24039373	0.14143839	0.89968302	-0.063071597	0.12158861	0.90839592	0.17536038	-0.031097544	0.96179241	0.046317549	0.16528727	1.3461745	-0.11207186	0.095341521	1.3687162	0.21013233	0.064547522	1.4105869	0.03301364	0.03527102	0.99743969	-0.19139803	-0.072055691	1.0442885	0.26743788	0.23408556	0.81516249	-0.18046387	0.01163028	0.79229821	0.3205047
246	0.98	0.085722747	-0.058613259	0.036569062	0.13749867	0.12136351	0.146257	-0.049411848	-0.0074078025	-0.028792675	0.012890569	0.19933535	0.15983473	-0.038757309	0.011637327	0.068322421	0.05003229	0.21538077	0.066408275	-0.12877708	-0.030929508	0.0072231144	-0.054582694	0.20152325	0.10145299	0.072547876	0.39189127	-0.078565827	0.30843982	0.51143674	0.20496787	0.059184707	0.39374601	0.048463206	0.31349046	0.50486699	0.077097048	0.0652725	0.81682478	-0.1317493	0.049802144	0.82490653	0.24071637	0.14611728	0.90031434	-0.063351993	0.12708924	0.90947759	0.17505027	-0.026172886	0.96307349	0.046582945	0.17071825	1.3470271	-0.11198542	0.10131627	1.3696025	0.21023901	0.070179999	1.4114119	0.033207173	0.041552294	0.99762787	-0.19102646	-0.067706341	1.0461644	0.26750447	0.24312966	0.81804087	-0.17934143	0.015543427	0.79395474	0.32178536
247	0.984	0.085806714	-0.058562173	0.036468134	0.15678926	0.1205307	0.14554255	-0.049178053	-0.0068259819	-0.028845028	0.029990308	0.1946252	0.15969127	-0.038646825	0.012114955	0.068346624	0.066808398	0.21197942	0.066247696	-0.12868465	-0.030164565	0.0075246792	-0.037889281	0.19514345	0.1014998	0.072466657	0.39245882	-0.078303941	0.31718189	0.51523722	0.20513179	0.06016807	0.39425529	0.04843474	0.32211339	0.50893884	0.077183701	0.069080197	0.81750409	-0.13138595	0.055555291	0.8263174	0.24103902	0.1507858	0.90085957	-0.06360903	0.13258984	0.9104895	0.17475961	-0.021217833	0.96430546	0.046812192	0.17609631	1.3478195	-0.11187622	0.10730842	1.3704119	0.2103513	0.075827263	1.4121698	0.033429083	0.047855547	0.99774529	-0.19063389	-0.063296522	1.0479532	0.26756465	0.25259558	0.82097765	-0.17780854	0.019545959	0.79556056	0.32307207
248	0.988	0.085863964	-0.058505674	0.036377043	0.17617188	0.11977194	0.14479068	-0.048958651	-0.0062561293	-0.028920857	0.047344209	0.18985382	0.15948632	-0.03843296	0.012614028	0.068351196	0.083270119	0.20884616	0.066063025	-0.12861128	-0.029449546	0.0078254404	-0.0211397	0.1888355	0.10178508	0.07201019	0.39291497	-0.077611711	0.32583464	0.51891986	0.20525477	0.061203762	0.39472178	0.048398074	0.33044808	0.51284777	0.077364934	0.07273127	0.81828372	-0.13048005	0.06128143	0.82765701	0.24136443	0.15545612	0.90132635	-0.063836964	0.13808452	0.9114277	0.17449089	-0.016229164	0.96540441	0.047085255	0.18142613	1.3485468	-0.11174938	0.11330975	1.3711487	0.21048271	0.081488942	1.4128702	0.033694881	0.054181672	0.99778713	-0.19021066	-0.05876345	1.0496402	0.26765659	0.26218425	0.82387406	-0.17606033	0.023577349	0.79708714	0.32432935
249	0.992	0.085909541	-0.058460848	0.036302914	0.19562136	0.11911007	0.14401576	-0.048807778	-0.0056667005	-0.029012537	0.064991554	0.18506457	0.15917434	-0.038043563	0.013143868	0.068327064	0.0995175	0.20588372	0.065904177	-0.12852029	-0.028747706	0.0080296645	-0.0043149873	0.18259637	0.10221585	0.071327447	0.39330888	-0.076709986	0.33441245	0.52249468	0.20530924	0.062024941	0.39522413	0.048399981	0.33848814	0.51658885	0.077644816	0.076044209	0.81911859	-0.12916104	0.066971254	0.82892062	0.24169025	0.16014219	0.90172017	-0.064029	0.14356272	0.91228979	0.17424636	-0.011191631	0.96633051	0.047400894	0.18673301	1.3492032	-0.11162634	0.11932144	1.3718154	0.21063386	0.087147468	1.4134967	0.033985754	0.060531453	0.99775308	-0.18975161	-0.054080237	1.0512369	0.26784923	0.27152512	0.82663384	-0.17440913	0.02750653	0.79848473	0.32548696
250	0.996	0.085954472	-0.058437398	0.036248467	0.21509373	0.11854509	0.14324055	-0.048811174	-0.0050302254	-0.029009345	0.082940696	0.18026419	0.15881332	-0.037605924	0.013652271	0.068340006	0.1158662	0.20285832	0.065783023	-0.12840224	-0.028059432	0.0081516387	0.012757248	0.17638601	0.10268198	0.070770641	0.39373147	-0.075978891	0.34286361	0.52593108	0.20531864	0.062434535	0.39579603	0.048501009	0.34632786	0.52013936	0.077965415	0.07919896	0.81991363	-0.12781291	0.072633689	0.83010405	0.24201772	0.16484467	0.90203946	-0.064185378	0.1490161	0.91307156	0.17402691	-0.0060714312	0.96710595	0.0476531	0.19204286	1.3497863	-0.11152813	0.12535235	1.3724072	0.21079475	0.09278309	1.4140158	0.034267265	0.066903484	0.99764379	-0.18926425	-0.049245342	1.0527517	0.26817628	0.28023093	0.82923328	-0.17325836	0.031182166	0.7997074	0.32647001
251	1	0.085994768	-0.058435382	0.036223362	0.23457369	0.11805737	0.14248458	-0.049014584	-0.0043561164	-0.028728191	0.10114225	0.17545027	0.1585181	-0.037247645	0.014090634	0.068425301	0.13251798	0.19966205	0.065678821	-0.12827262	-0.027400536	0.0082627745	0.030355907	0.17012884	0.10303987	0.07053457	0.39422072	-0.075567064	0.35114306	0.52921756	0.20532657	0.062469198	0.39641107	0.048737223	0.35411584	0.52346132	0.078228949	0.082577218	0.82057864	-0.12682191	0.07828454	0.83120233	0.24235106	0.1695609	0.90227993	-0.06431211	0.15444487	0.91376366	0.17383228	-0.00083802338	0.9677627	0.047749467	0.19736599	1.3503003	-0.11145842	0.13140803	1.3729161	0.21095832	0.098393004	1.4144151	0.034519489	0.07329009	0.9974601	-0.18876001	-0.044287402	1.0541749	0.26858441	0.28804071	0.83179434	-0.17302943	0.034573656	0.80075377	0.32727069
252	1.004	0.086022603	-0.058457012	0.03625201	0.25408001	0.11762038	0.14175783	-0.049328563	-0.0036973542	-0.028158413	0.11945169	0.17067528	0.15832365	-0.036972043	0.014470376	0.068559807	0.14945389	0.19633884	0.065575579	-0.12814386	-0.026772127	0.0084070503	0.048577272	0.16378877	0.10317756	0.070523256	0.39475501	-0.075347483	0.35925109	0.53235977	0.20536375	0.062519921	0.396999	0.049066024	0.36194065	0.52652032	0.078380214	0.08633769	0.82107668	-0.12632572	0.083921342	0.83220142	0.24268993	0.17429979	0.90244165	-0.064408846	0.15985832	0.914359	0.17366638	0.004477428	0.96830836	0.047741419	0.20269581	1.3507491	-0.11140045	0.13748793	1.3733359	0.2111208	0.10399725	1.4147163	0.034753226	0.079670147	0.99720358	-0.18823351	-0.039234702	1.0554841	0.26900401	0.29509772	0.83454456	-0.17386209	0.037897517	0.80168996	0.32799818
